<svg width="187" height="67" viewBox="0 0 187 67" fill="none" xmlns="http://www.w3.org/2000/svg">
<rect width="187" height="67" fill="#B4B4B4"/>
<g id="Amity_Homepage_25/09/23" clip-path="url(#clip0_0_1)">
<rect width="1920" height="15431" transform="translate(-87 -42)" fill="white"/>
<g id="Group 48100215">
<rect id="Rectangle 20328" x="-39" y="-23" width="1824" height="111" rx="32" fill="#1A325D"/>
<g id="Layer 1">
<g id="Group">
<path id="Vector" d="M28.0013 65.25H28.0513L28.0974 65.2308C34.8053 62.4402 39.3929 60.3212 42.5204 58.6593C47.2117 56.1677 51.2568 53.1017 53.418 47.9795C54.6784 44.9962 55.3219 41.4115 55.2436 37.1217C55.2436 37.1211 55.2436 37.1205 55.2436 37.12L55.1146 7.10834L55.114 6.96205L54.9862 6.89094C47.6173 2.79208 37.8017 0.750337 28.0013 0.75C18.201 0.749663 8.38536 2.79073 1.01653 6.88824L0.888658 6.95934L0.888029 7.10565C0.866589 12.095 0.844462 17.0876 0.822334 22.0805C0.800112 27.0949 0.777887 32.1096 0.756354 37.1217C0.678125 41.4117 1.32432 44.9962 2.58191 47.9794L2.58194 47.9794C4.74314 53.1017 8.79098 56.1677 13.4823 58.6593C16.6099 60.324 21.1976 62.4403 27.9026 65.2308L27.9487 65.25H27.9986H28.0013Z" fill="#002E5E" stroke="white" stroke-width="0.5"/>
<path id="Vector_2" fill-rule="evenodd" clip-rule="evenodd" d="M28.1754 61.9347C32.542 60.111 37.0284 58.1882 41.1944 55.971C45.3161 53.7773 48.8802 51.1407 50.7482 46.7168C52.0196 43.6998 52.4026 40.3389 52.3427 37.0874V37.0614L52.2333 20.9238C37.5521 17.9849 13.2571 20.15 4.06022 33.2445L4.01332 37.0614V37.0874C3.956 40.3363 4.33639 43.6998 5.6078 46.7168C7.47324 51.1407 11.04 53.7773 15.159 55.971C19.325 58.1882 23.8114 60.1136 28.178 61.9347H28.1754Z" fill="#FFCB05"/>
<path id="Vector_3" fill-rule="evenodd" clip-rule="evenodd" d="M35.8148 36.3786C33.3032 37.5432 32.579 41.1646 32.7509 43.7179C32.8134 44.7001 32.9255 45.7058 32.5138 46.6307C31.318 49.3012 27.2145 47.6754 28.0977 43.9576C28.9914 40.1824 30.8672 36.7954 30.8724 32.3533C30.875 28.6902 29.416 25.4309 26.4459 22.479C27.3604 25.6914 25.8233 27.3901 24.0725 29.3337C23.1189 30.3915 22.1601 31.431 21.6964 32.8197C21.0633 34.7164 21.2535 36.8371 22.6734 38.713C22.5145 37.5249 22.4858 36.4099 22.6916 35.4146C23.2909 32.4914 27.0947 31.1392 28.017 28.586C29.0018 30.1987 28.6996 32.5383 27.8398 34.7294C26.2479 38.0955 22.9678 42.6783 23.8171 46.5864C24.3356 48.9677 25.5132 50.6403 27.7017 51.5418C30.4113 52.6595 33.793 51.5314 35.0931 48.8296C35.734 47.4983 35.7809 46.0028 35.3589 44.377C33.9129 39.3826 34.8248 37.8246 35.8148 36.3786Z" fill="white"/>
<path id="Vector_4" fill-rule="evenodd" clip-rule="evenodd" d="M35.7175 36.2145L35.7332 36.2041L35.9755 36.4855C35.4935 37.1915 35.0297 37.921 34.8656 39.0726C34.6962 40.2424 34.8317 41.8551 35.5456 44.3224V44.3276C35.7592 45.1613 35.8556 45.9612 35.8139 46.7245C35.7775 47.4931 35.5977 48.2252 35.2668 48.913C34.2976 50.927 32.2159 52.0942 30.0822 52.1593C29.6653 52.1723 29.2484 52.1437 28.8394 52.0707C28.4304 51.9978 28.0265 51.8831 27.6305 51.7216V51.7164C26.5024 51.2526 25.6348 50.5883 24.9809 49.7337C24.3321 48.8818 23.897 47.8422 23.6339 46.6229C22.9513 43.4861 24.848 39.9688 26.4711 36.9544C26.9088 36.1416 27.3283 35.3652 27.667 34.6461C28.2714 33.1037 28.5945 31.4936 28.373 30.1258C28.3314 29.8653 28.2662 29.6099 28.1828 29.3702C28.1412 29.253 28.0943 29.1384 28.0422 29.0263C27.5393 30.0685 26.5936 30.9074 25.64 31.7567C24.4311 32.8328 23.1962 33.9348 22.8835 35.4485C22.7845 35.9331 22.7403 36.4464 22.7429 36.9857C22.7429 37.5276 22.7898 38.0956 22.8679 38.6818L22.524 38.8225C21.474 37.4364 21.078 35.9175 21.1796 34.4455C21.2005 34.1589 21.237 33.8723 21.2917 33.5935C21.3464 33.32 21.4219 33.0386 21.5157 32.7624L21.5209 32.752C21.9847 31.3633 22.9122 30.3316 23.858 29.2869L23.9387 29.1957L23.9465 29.1853C25.6556 27.2938 27.1511 25.6316 26.2653 22.526L26.5858 22.3384C28.0864 23.8286 29.2094 25.4023 29.9545 27.0645C30.7022 28.7319 31.0696 30.4879 31.0696 32.3456C31.0696 35.3365 30.2281 37.8455 29.4022 40.3101C28.9931 41.5294 28.5893 42.7383 28.2923 43.9915C27.9822 45.3046 28.3183 46.3389 28.9254 46.9877C29.1911 47.269 29.5064 47.4801 29.8346 47.6077C30.1655 47.7328 30.5146 47.7797 30.8455 47.738C31.4526 47.6599 32.0153 47.2795 32.3488 46.5448C32.711 45.7345 32.6458 44.833 32.5833 43.942L32.5677 43.7232C32.4426 41.8551 32.7917 39.4243 33.9485 37.7543C34.1778 37.4234 34.4383 37.1238 34.7327 36.8633C35.0297 36.6001 35.358 36.3787 35.7254 36.2067L35.7175 36.2145ZM35.2069 36.9701C35.1287 37.03 35.0532 37.0925 34.9802 37.1577C34.7093 37.3973 34.4696 37.6761 34.2585 37.9809C33.1539 39.5702 32.8256 41.9046 32.948 43.7049L32.9637 43.9238C33.0262 44.8591 33.0939 45.8074 32.6953 46.7089C32.3045 47.5791 31.6245 48.0298 30.8924 48.1262C30.4964 48.1757 30.0848 48.121 29.6966 47.9751C29.311 47.8266 28.9462 47.5843 28.644 47.2586C27.9588 46.5265 27.5732 45.3723 27.9171 43.916C28.2167 42.6524 28.6258 41.4304 29.0374 40.2007C29.8555 37.7621 30.684 35.287 30.6866 32.3586C30.6866 30.5557 30.3297 28.8518 29.6054 27.2338C28.9618 25.7957 28.0291 24.4279 26.802 23.12C27.3543 25.9911 25.8901 27.6168 24.2357 29.4536L24.2253 29.4666L24.1445 29.5552C23.2275 30.5713 22.3234 31.5718 21.8857 32.8849L21.8831 32.8953C21.7997 33.148 21.7294 33.4112 21.6747 33.6821C21.6199 33.9479 21.5861 34.2162 21.5678 34.482C21.4871 35.6413 21.7372 36.8372 22.4068 37.9653C22.3781 37.6344 22.3625 37.3114 22.3599 36.9961C22.3599 36.4308 22.4068 35.8888 22.5084 35.3834C22.8471 33.7394 24.1263 32.6009 25.3847 31.4806C26.419 30.5583 27.4351 29.6542 27.8415 28.5261L27.977 28.1535L28.1881 28.4896V28.4948H28.1907C28.334 28.7345 28.4538 28.9873 28.5476 29.2504C28.6388 29.5135 28.7065 29.7871 28.756 30.0711C28.9905 31.5118 28.6544 33.2001 28.0239 34.8024V34.8128L28.0187 34.818C27.6748 35.5449 27.2527 36.3265 26.8124 37.1472C25.2179 40.1017 23.3603 43.5538 24.0117 46.5526C24.2644 47.7146 24.676 48.7046 25.2935 49.5097C25.9058 50.3095 26.7212 50.9348 27.7816 51.3725H27.7868C28.149 51.5236 28.5294 51.633 28.915 51.7008C29.3032 51.7685 29.694 51.7972 30.0795 51.7841C32.0779 51.7216 34.0267 50.6326 34.9281 48.7567C35.2355 48.1158 35.4023 47.4332 35.4362 46.7141C35.4752 45.9924 35.3814 45.2317 35.1808 44.4396C34.4487 41.9124 34.3159 40.2476 34.4904 39.0309C34.6155 38.1711 34.8864 37.5354 35.2121 36.9779L35.2069 36.9701Z" fill="#A7A9AC"/>
<path id="Vector_5" fill-rule="evenodd" clip-rule="evenodd" d="M65.9384 21.5183H74.9269L70.4639 7.59009L65.9384 21.5183ZM58.2214 33.5916V32.1534C59.1932 32.1013 59.9435 31.8303 60.4672 31.3249C60.9909 30.8273 61.4937 29.8555 61.9705 28.4069L69.7475 4.53401L72.952 3.48145L81.6279 29.3058C81.8103 29.8894 82.0239 30.374 82.2532 30.7595C82.4851 31.1477 82.7508 31.4474 83.0452 31.6792C83.2406 31.8225 83.5011 31.932 83.819 32.0049C84.1395 32.0831 84.6136 32.13 85.2545 32.1534V33.5916H74.4319V32.1534H74.7081C75.8492 32.1534 76.6543 32.0127 77.1232 31.7313C77.587 31.4526 77.8163 30.9862 77.8163 30.3166C77.8163 30.202 77.7824 30.0196 77.7146 29.7591C77.6521 29.5064 77.5661 29.2146 77.4567 28.8889L75.6043 23.3864H65.3184L63.9427 27.951C63.862 28.1881 63.7994 28.446 63.7525 28.7274C63.7056 29.0061 63.6848 29.2927 63.6848 29.5845C63.6848 30.4625 63.9089 31.1087 64.3648 31.5307C64.8129 31.9424 65.5059 32.1534 66.4334 32.1534H66.8347V33.5916H58.2188H58.2214ZM112.728 6.17539L102.833 33.5916H101.736L91.6924 6.49324V26.7733C91.6924 28.5997 91.9894 29.8972 92.5886 30.6866C93.1879 31.4682 94.1727 31.9059 95.5535 31.9997L95.5744 33.5916H86.0283V31.9997C87.4378 31.8903 88.4305 31.4474 89.0141 30.6736C89.6003 29.8972 89.8921 28.5997 89.8921 26.7733V9.72388C89.8921 7.83239 89.6941 6.69125 89.2955 6.28221C88.8968 5.88098 88.0814 5.67776 86.8412 5.67776H86.0257V4.20052H94.4358L103.166 27.6305L111.746 4.20313H120.523V5.67776H119.789C118.496 5.67776 117.66 5.89661 117.272 6.3265C116.886 6.76159 116.693 7.82197 116.693 9.52327V28.5736C116.693 30.0874 116.891 31.0618 117.293 31.5047C117.694 31.9398 118.525 32.156 119.791 32.156H120.526V33.5942H108.898V32.156H109.576C110.863 32.156 111.712 31.945 112.121 31.5255C112.525 31.0956 112.728 30.1186 112.728 28.5736V6.17539ZM134.332 4.20313V5.67776H133.555C132.25 5.67776 131.398 5.89661 131.005 6.3265C130.603 6.76159 130.405 7.76726 130.405 9.34611V28.3678C130.405 29.9805 130.616 31.0123 131.044 31.4682C131.466 31.9241 132.331 32.1534 133.631 32.1534H134.332V33.5916H122.613V32.1534H123.11C124.465 32.1534 125.361 31.9424 125.799 31.5307C126.242 31.1061 126.458 30.1082 126.458 28.532V9.3435C126.458 7.68389 126.255 6.65738 125.841 6.26136C125.434 5.87316 124.549 5.67776 123.194 5.67776H122.615V4.20052H134.334L134.332 4.20313ZM159.807 4.20313L162.225 11.2767L160.945 11.7535C158.89 9.12205 157.303 7.42856 156.183 6.65738C155.068 5.89401 153.841 5.51362 152.494 5.51362C151.881 5.51362 151.459 5.62305 151.225 5.83148C150.985 6.04512 150.863 6.44634 150.863 7.02994V28.6127C150.863 30.0795 151.074 31.0409 151.488 31.4864C151.907 31.9293 152.759 32.1534 154.052 32.1534H154.786V33.5916H143.028V32.1534H143.763C145.042 32.1534 145.886 31.9372 146.293 31.5099C146.707 31.0722 146.913 30.1212 146.913 28.6466V7.03255C146.913 6.44895 146.791 6.04772 146.553 5.83408C146.314 5.62566 145.892 5.51623 145.282 5.51623C143.935 5.51623 142.711 5.89661 141.593 6.65998C140.478 7.42856 138.886 9.12205 136.83 11.7561L135.551 11.2793L137.964 4.20573H159.807V4.20313ZM172.907 21.5939L165.81 7.5927C165.406 6.83715 164.992 6.33431 164.559 6.07378C164.116 5.82106 163.449 5.68037 162.545 5.63868L162.584 4.20313H172.711V5.63868H172.352C171.406 5.63868 170.718 5.72205 170.288 5.8914C169.856 6.05293 169.637 6.31347 169.637 6.65477C169.637 6.80588 169.676 6.98044 169.759 7.19148C169.832 7.41033 170.004 7.75163 170.254 8.21278L176.017 19.2308L181.08 9.1507C181.236 8.83025 181.358 8.52542 181.439 8.23883C181.512 7.95224 181.556 7.68649 181.556 7.43638C181.556 6.83715 181.304 6.38902 180.801 6.0868C180.295 5.78979 179.514 5.63868 178.466 5.63868L178.508 4.20313H186.999V5.63868C185.509 5.80803 184.326 6.75377 183.432 8.4681C183.351 8.63745 183.292 8.76772 183.25 8.84848L176.875 21.0572V28.73C176.875 30.1238 177.086 31.0435 177.502 31.489C177.925 31.932 178.774 32.156 180.066 32.156H180.801V33.5942H169.077V32.156H169.819C171.065 32.156 171.893 31.945 172.302 31.5333C172.706 31.1087 172.907 30.1655 172.907 28.6909V21.5939Z" fill="white"/>
<path id="Vector_6" fill-rule="evenodd" clip-rule="evenodd" d="M67.5929 38.2946V37.5156H72.4311V38.2946C71.7224 38.3363 71.2196 38.5499 70.9252 38.9381C70.6334 39.3237 70.4796 39.9803 70.4796 40.9052V46.7281C70.4796 48.716 70.0602 50.1802 69.2187 51.1182C68.3797 52.0613 67.0718 52.5303 65.3132 52.5303C63.5546 52.5303 62.2519 52.0926 61.3635 51.2094C60.4725 50.3287 60.0322 49.0183 60.0322 47.2753V39.9881C60.0322 39.2716 59.9253 38.8 59.7091 38.5734C59.4902 38.3493 59.0551 38.2321 58.4038 38.2321H58.0469V37.5156H64.0236V38.2321H63.651C62.9918 38.2321 62.5646 38.3415 62.3561 38.5603C62.1529 38.774 62.0487 39.2716 62.0487 40.0454V47.6035C62.0487 48.9505 62.3535 49.9588 62.9606 50.6284C63.5702 51.2953 64.4899 51.6288 65.7275 51.6288C66.965 51.6288 67.9707 51.2458 68.5934 50.4877C69.2239 49.7243 69.5391 48.5753 69.5391 47.0356V40.9026C69.5391 39.9751 69.3932 39.3185 69.1014 38.9303C68.8096 38.5447 68.3042 38.3337 67.5903 38.2946H67.5929ZM76.3625 37.4948L84.4965 48.9297V40.9052C84.4965 39.9516 84.3323 39.2846 84.0067 38.8938C83.6784 38.5056 83.1234 38.305 82.3392 38.292V37.4948H87.5682V38.292C86.7892 38.305 86.2342 38.5056 85.906 38.8938C85.5751 39.2846 85.4083 39.9516 85.4083 40.9052V52.5303H84.6893L75.8675 40.0298V48.7916C75.8675 49.7451 76.0291 50.4121 76.3573 50.8029C76.6856 51.1885 77.2379 51.3917 78.0248 51.4048V52.202H72.7984L72.8062 51.4048C73.5904 51.3917 74.148 51.1885 74.4684 50.8029C74.7941 50.4121 74.9556 49.7451 74.9556 48.7916V39.0892C74.7133 38.8235 74.4163 38.6229 74.0698 38.4848C73.7207 38.3441 73.3012 38.2581 72.8062 38.2295L72.7984 37.4948H76.3625ZM94.1128 37.4948V38.2321H93.7194C93.0551 38.2321 92.6226 38.3415 92.422 38.5551C92.2188 38.774 92.1171 39.2768 92.1171 40.0662V49.5862C92.1171 50.3887 92.224 50.9071 92.4428 51.1364C92.6565 51.3631 93.0968 51.4803 93.7559 51.4803H94.1102V52.1994H88.157V51.4803H88.4097C89.0975 51.4803 89.5561 51.3735 89.7749 51.1677C89.999 50.9566 90.1084 50.4564 90.1084 49.667V40.0662C90.1084 39.2351 90.0068 38.7219 89.7932 38.5239C89.5847 38.3285 89.1366 38.2321 88.4462 38.2321H88.1544V37.4948H94.1076H94.1128ZM101.249 52.7074L96.9813 40.5065C96.9683 40.4727 96.9579 40.4362 96.9449 40.3997C96.4577 39.0345 95.7151 38.305 94.7147 38.2138V37.4974H100.238V38.2138C99.5997 38.2477 99.1568 38.3207 98.9093 38.4327C98.6592 38.5473 98.5341 38.7193 98.5341 38.9538C98.5341 39.0267 98.5576 39.1518 98.6019 39.3341C98.6436 39.5139 98.7087 39.7145 98.7895 39.9438L102.08 49.284L105.17 40.2408C105.233 40.0584 105.274 39.8969 105.3 39.7458C105.329 39.5973 105.342 39.454 105.342 39.3211C105.342 38.9564 105.219 38.688 104.972 38.5161C104.727 38.3519 104.308 38.2477 103.719 38.2138V37.4974H108.197V38.2138C107.697 38.2555 107.312 38.391 107.041 38.6307C106.772 38.8652 106.53 39.2898 106.311 39.9099L101.814 52.7074H101.246H101.249ZM109.104 52.202V51.4829H109.448C110.107 51.4829 110.545 51.3709 110.753 51.1546C110.964 50.9358 111.069 50.4277 111.069 49.6279V40.048C111.069 39.2325 110.964 38.7245 110.761 38.5265C110.553 38.3311 110.097 38.2347 109.388 38.2347H109.104V37.4974H119.518L120.987 40.9573L120.409 41.1735C119.497 40.0115 118.666 39.2143 117.915 38.7844C117.168 38.3519 116.264 38.1357 115.201 38.1357C114.341 38.1357 113.775 38.2477 113.499 38.4692C113.223 38.6906 113.085 39.1492 113.085 39.8318V44.1593H114.122C115.07 44.1593 115.776 43.9717 116.238 43.6017C116.699 43.2291 116.996 42.6117 117.131 41.7467H117.84V47.4316H117.131C117.017 46.5327 116.725 45.8918 116.266 45.501C115.805 45.1128 115.086 44.92 114.125 44.92H113.088V49.964C113.088 50.5215 113.213 50.9045 113.46 51.113C113.71 51.3214 114.164 51.4256 114.807 51.4256C116.092 51.4256 117.228 51.1599 118.218 50.6336C119.205 50.1047 120.104 49.2814 120.909 48.1585L121.508 48.3669L120.075 52.2072H109.104V52.202ZM132.445 52.202L128.454 45.0555H126.925V49.7686C126.925 50.4773 127.032 50.9384 127.243 51.1599C127.456 51.3735 127.886 51.4829 128.537 51.4829H128.889V52.202H122.944V51.4829H123.29C123.952 51.4829 124.387 51.3709 124.596 51.1494C124.807 50.9254 124.911 50.4017 124.911 49.5706V39.949C124.911 39.2117 124.807 38.7427 124.601 38.5369C124.392 38.3363 123.944 38.2321 123.249 38.2321H122.944V37.4948H128.868C130.721 37.4948 132.125 37.8256 133.079 38.4874C134.035 39.1466 134.514 40.121 134.514 41.4054C134.514 42.3746 134.186 43.1458 133.524 43.7268C132.87 44.3026 131.849 44.7064 130.473 44.9357L133.209 49.6696C133.649 50.4304 134.048 50.9176 134.397 51.1442C134.756 51.3735 135.228 51.4829 135.825 51.4829H135.976V52.202H132.448H132.445ZM126.925 44.2973H128.584C129.89 44.2973 130.833 44.0629 131.416 43.5913C132 43.1249 132.292 42.372 132.292 41.3351C132.292 40.2486 132.016 39.4514 131.474 38.9433C130.932 38.4275 130.075 38.1748 128.907 38.1748C128.084 38.1748 127.547 38.2816 127.297 38.4952C127.05 38.7062 126.922 39.1778 126.922 39.9099V44.2973H126.925ZM137.979 52.4912L136.489 48.5649L137.185 48.307C138.016 49.4038 138.891 50.2506 139.803 50.8472C140.72 51.4412 141.606 51.7382 142.463 51.7382C143.273 51.7382 143.956 51.4673 144.503 50.9228C145.05 50.3809 145.324 49.7035 145.324 48.8958C145.324 48.0881 145.071 47.4212 144.568 46.947C144.065 46.4702 143.028 46.0039 141.463 45.5453C141.371 45.5219 141.226 45.4776 141.028 45.4255C139.777 45.0972 138.87 44.6543 138.313 44.1019C137.909 43.7007 137.601 43.25 137.385 42.7498C137.174 42.2469 137.067 41.7154 137.067 41.1579C137.067 40.0298 137.443 39.0892 138.201 38.3441C138.959 37.5964 139.907 37.2212 141.048 37.2212C141.494 37.2212 141.986 37.302 142.531 37.4661C143.07 37.6276 143.396 37.7084 143.503 37.7084C143.69 37.7084 143.904 37.6745 144.138 37.599C144.378 37.5286 144.641 37.4218 144.93 37.2837L146.329 41.0016L145.741 41.3194C144.925 40.1652 144.131 39.3029 143.362 38.7375C142.591 38.1721 141.83 37.8908 141.069 37.8908C140.308 37.8908 139.73 38.1383 139.248 38.6333C138.769 39.1309 138.532 39.751 138.532 40.5039C138.532 40.9234 138.607 41.296 138.763 41.6216C138.917 41.9499 139.167 42.2521 139.501 42.5309C139.954 42.9035 140.876 43.2682 142.278 43.6356C142.614 43.7216 142.875 43.7893 143.047 43.8336C144.308 44.1801 145.243 44.7168 145.868 45.4437C146.494 46.1732 146.806 47.0877 146.806 48.1924C146.806 49.4091 146.408 50.4382 145.61 51.2771C144.813 52.116 143.841 52.5381 142.695 52.5381C142.023 52.5381 141.343 52.4182 140.647 52.1838C139.954 51.9441 139.584 51.8216 139.545 51.8216C139.389 51.8216 139.191 51.8763 138.951 51.9779C138.711 52.0795 138.391 52.2541 137.987 52.4964L137.979 52.4912ZM154.088 37.4974V38.2347H153.695C153.033 38.2347 152.598 38.3441 152.397 38.5577C152.191 38.7766 152.092 39.2794 152.092 40.0688V49.5888C152.092 50.3913 152.199 50.9097 152.418 51.139C152.632 51.3657 153.072 51.4829 153.731 51.4829H154.088V52.202H148.132V51.4829H148.385C149.073 51.4829 149.529 51.3761 149.75 51.1703C149.977 50.9592 150.086 50.459 150.086 49.6696V40.0688C150.086 39.2377 149.982 38.7245 149.771 38.5265C149.563 38.3311 149.115 38.2347 148.424 38.2347H148.132V37.4974H154.088ZM167.037 37.4974L168.264 41.0354L167.613 41.2751C166.568 39.9568 165.758 39.1101 165.19 38.7271C164.624 38.3441 164.002 38.1565 163.316 38.1565C163.006 38.1565 162.79 38.2112 162.67 38.3154C162.548 38.4223 162.485 38.6229 162.485 38.9173V49.7139C162.485 50.4486 162.592 50.9306 162.806 51.152C163.019 51.3761 163.452 51.4855 164.108 51.4855H164.481V52.2046H158.504V51.4855H158.877C159.526 51.4855 159.955 51.3761 160.164 51.1625C160.375 50.941 160.477 50.4668 160.477 49.7295V38.9121C160.477 38.6177 160.414 38.4171 160.294 38.3128C160.172 38.2086 159.958 38.1539 159.645 38.1539C158.96 38.1539 158.338 38.3441 157.77 38.7245C157.202 39.1075 156.394 39.9542 155.352 41.2725L154.698 41.0328L155.925 37.4948H167.029L167.037 37.4974ZM173.694 46.1993L170.088 39.1908C169.884 38.8131 169.671 38.563 169.452 38.4301C169.225 38.305 168.887 38.2321 168.425 38.2112L168.446 37.4948H173.592V38.2112H173.407C172.928 38.2112 172.576 38.2529 172.36 38.3363C172.138 38.4197 172.026 38.5473 172.026 38.7167C172.026 38.7922 172.047 38.8808 172.086 38.985C172.128 39.0944 172.214 39.2638 172.341 39.4957L175.27 45.0086L177.844 39.9672C177.922 39.8057 177.987 39.652 178.026 39.5113C178.063 39.368 178.084 39.2351 178.084 39.1075C178.084 38.8105 177.956 38.5838 177.701 38.4353C177.445 38.2842 177.047 38.2086 176.515 38.2086L176.536 37.4921H180.853V38.2086C180.095 38.2946 179.493 38.7662 179.04 39.6233C178.998 39.7093 178.967 39.7744 178.946 39.8161L175.707 45.9257V49.766C175.707 50.4616 175.814 50.9228 176.025 51.1468C176.239 51.3709 176.671 51.4803 177.331 51.4803H177.703V52.1994H171.745V51.4803H172.122C172.756 51.4803 173.178 51.3735 173.383 51.1677C173.589 50.9566 173.691 50.4825 173.691 49.7451V46.1966L173.694 46.1993Z" fill="white"/>
<path id="Vector_7" fill-rule="evenodd" clip-rule="evenodd" d="M14.9253 10.7685H17.0356L15.9857 7.50142L14.9227 10.7685H14.9253ZM13.1172 13.6006V13.2619C13.3439 13.2488 13.521 13.1863 13.6461 13.0691C13.7685 12.9544 13.8858 12.7252 13.9978 12.3839L15.8242 6.78494L16.5745 6.54004L18.6093 12.5949C18.6536 12.733 18.7005 12.845 18.7552 12.9362C18.8099 13.0274 18.8724 13.0977 18.9402 13.1524C18.9871 13.1837 19.047 13.2098 19.1225 13.228C19.1981 13.2462 19.3075 13.2567 19.4586 13.2619V13.6006H16.921V13.2619H16.9887C17.2571 13.2619 17.4447 13.228 17.5541 13.1629C17.6609 13.0977 17.7156 12.9857 17.7156 12.832C17.7156 12.8033 17.7078 12.7616 17.6922 12.7017C17.6766 12.6418 17.6583 12.574 17.6323 12.4959L17.1972 11.2036H14.7846L14.4642 12.2744C14.4433 12.3317 14.4303 12.3917 14.4199 12.4568C14.4094 12.5219 14.4042 12.5897 14.4042 12.6574C14.4042 12.8632 14.4563 13.0144 14.5632 13.1134C14.67 13.2098 14.8315 13.2593 15.0504 13.2593H15.1442V13.598H13.125L13.1172 13.6006ZM25.8991 7.17054L23.5777 13.6006H23.3198L20.9645 7.24609V12.0009C20.9645 12.4281 21.0349 12.733 21.1756 12.918C21.3162 13.1029 21.5481 13.2019 21.8712 13.2254V13.6006H19.6384V13.2254C19.9693 13.1993 20.2038 13.0977 20.3392 12.9154C20.4773 12.733 20.5451 12.4281 20.5451 12.0009V8.00425C20.5451 7.56134 20.4982 7.29299 20.4018 7.19659C20.3106 7.1028 20.1178 7.05329 19.8286 7.05329H19.6358V6.70939H21.6081L23.6559 12.2041L25.6672 6.70939H27.7254V7.05329H27.5535C27.2513 7.05329 27.0559 7.10801 26.9621 7.20701C26.8709 7.30601 26.8266 7.55613 26.8266 7.95475V12.4229C26.8266 12.7799 26.8735 13.0065 26.9673 13.1108C27.0611 13.2124 27.2539 13.2619 27.5535 13.2619H27.7254V13.6006H24.9976V13.2619H25.1565C25.4588 13.2619 25.6594 13.2124 25.7532 13.1134C25.8496 13.0117 25.8965 12.7825 25.8965 12.4229V7.17054H25.8991ZM30.9639 6.70939V7.05329H30.7815C30.4767 7.05329 30.2761 7.10801 30.1823 7.20701C30.0885 7.30601 30.0416 7.54571 30.0416 7.91567V12.376C30.0416 12.7512 30.0911 12.9961 30.1901 13.1029C30.2917 13.2098 30.4923 13.2619 30.7998 13.2619H30.9639V13.6006H28.2178V13.2619H28.3351C28.6503 13.2619 28.8614 13.2124 28.963 13.116C29.0672 13.017 29.1167 12.7825 29.1167 12.4125V7.91046C29.1167 7.52747 29.0724 7.28257 28.9734 7.19138C28.8796 7.1028 28.6712 7.05329 28.3533 7.05329H28.2178V6.70939H30.9639ZM36.938 6.70939L37.5059 8.3664L37.2063 8.47582C36.7243 7.85835 36.3492 7.46234 36.086 7.28257C35.8281 7.1054 35.5389 7.01682 35.221 7.01682C35.0804 7.01682 34.9787 7.04027 34.924 7.09237C34.8667 7.14188 34.8381 7.23567 34.8381 7.37115V12.4334C34.8381 12.7773 34.8876 13.0013 34.984 13.1081C35.083 13.2098 35.2836 13.2619 35.5858 13.2619H35.7578V13.6006H33.0013V13.2619H33.1732C33.4729 13.2619 33.6709 13.2124 33.7647 13.1108C33.8637 13.0091 33.9106 12.7851 33.9106 12.4412V7.36854C33.9106 7.23306 33.8819 7.13927 33.8246 7.08977C33.7699 7.03766 33.6709 7.01421 33.5276 7.01421C33.2123 7.01421 32.9231 7.1054 32.6626 7.27996C32.402 7.45973 32.0295 7.85835 31.5449 8.47321L31.2427 8.36379L31.8106 6.70678H36.9302L36.938 6.70939ZM40.0097 10.7868L38.3449 7.50142C38.2511 7.32425 38.1547 7.20962 38.0531 7.14709C37.9489 7.08716 37.7925 7.05329 37.5789 7.04548L37.5893 6.70939H39.9628V7.04548H39.8768C39.6554 7.04548 39.4938 7.06372 39.3922 7.1028C39.2906 7.14188 39.2385 7.20441 39.2385 7.28257C39.2385 7.31644 39.2489 7.35812 39.2672 7.41023C39.2854 7.45973 39.3245 7.5405 39.3844 7.64732L40.7366 10.2292L41.922 7.86617C41.9585 7.79061 41.9872 7.72027 42.0054 7.64992C42.021 7.58479 42.0315 7.52486 42.0315 7.46234C42.0315 7.32165 41.9741 7.21483 41.8569 7.14709C41.7397 7.07674 41.5547 7.04287 41.3098 7.04287L41.3202 6.70678H43.3107V7.04287C42.9616 7.08195 42.6828 7.30601 42.4744 7.70724C42.4561 7.74893 42.4405 7.77758 42.4327 7.79843L40.9346 10.6617V12.4594C40.9346 12.7851 40.9841 13.0013 41.0831 13.1081C41.1821 13.2098 41.3827 13.2619 41.6849 13.2619H41.8595V13.6006H39.1108V13.2619H39.2854C39.5772 13.2619 39.77 13.2124 39.869 13.116C39.9628 13.017 40.0097 12.7929 40.0097 12.449V10.7868Z" fill="white"/>
<path id="Vector_8" fill-rule="evenodd" clip-rule="evenodd" d="M15.1806 15.2395V15.0676H16.2306V15.2395C16.0769 15.25 15.9701 15.2968 15.9049 15.3828C15.8424 15.4688 15.8085 15.6147 15.8085 15.8179V17.1102C15.8085 17.5505 15.7173 17.8762 15.535 18.082C15.3526 18.293 15.0686 18.3946 14.6882 18.3946C14.3078 18.3946 14.0239 18.2982 13.8311 18.1028C13.6383 17.9048 13.5419 17.6156 13.5419 17.23V15.6147C13.5419 15.4558 13.5184 15.3516 13.4689 15.2995C13.4246 15.25 13.3282 15.2239 13.1875 15.2239H13.1094V15.065H14.4068V15.2239H14.3261C14.1828 15.2239 14.0916 15.2473 14.0447 15.2968C14.003 15.3463 13.9796 15.4532 13.9796 15.6277V17.303C13.9796 17.5974 14.0447 17.824 14.1776 17.9725C14.3104 18.1211 14.5111 18.194 14.7768 18.194C15.0426 18.194 15.264 18.108 15.3995 17.9413C15.535 17.7719 15.6053 17.5166 15.6053 17.1753V15.8153C15.6053 15.6095 15.5714 15.4636 15.5089 15.3776C15.4464 15.2942 15.337 15.2473 15.1806 15.2369V15.2395ZM17.317 15.0624L19.0835 17.5948V15.8179C19.0835 15.6069 19.047 15.4584 18.9766 15.3724C18.9063 15.2864 18.7864 15.2421 18.6145 15.2395V15.0624H19.7504V15.2395C19.5811 15.2421 19.4612 15.2864 19.3909 15.3724C19.3179 15.4584 19.2789 15.6069 19.2789 15.8179V18.3946H19.1251L17.2102 15.6251V17.5687C17.2102 17.7798 17.2441 17.9257 17.317 18.0142C17.3874 18.1002 17.5072 18.1445 17.6792 18.1471V18.3243H16.5432V18.1471C16.7152 18.1445 16.835 18.1002 16.9054 18.0142C16.9757 17.9257 17.0122 17.7798 17.0122 17.5687V15.4167C16.9575 15.3568 16.895 15.3125 16.8194 15.2812C16.7438 15.2473 16.6501 15.2317 16.5458 15.2239V15.0624H17.317ZM21.4048 15.0624V15.2265H21.3189C21.173 15.2265 21.0792 15.25 21.0401 15.2995C20.9932 15.349 20.9723 15.4584 20.9723 15.6329V17.7433C20.9723 17.923 20.9958 18.0377 21.0427 18.0872C21.087 18.1393 21.1834 18.1653 21.3267 18.1653H21.4048V18.3243H20.11V18.1653H20.1647C20.3132 18.1653 20.4122 18.1419 20.4617 18.095C20.5112 18.0481 20.5373 17.9361 20.5373 17.7615V15.6329C20.5373 15.448 20.5138 15.3359 20.4669 15.2916C20.4226 15.25 20.3236 15.2265 20.1751 15.2265H20.11V15.0624H21.4048ZM23.1869 18.4337L22.262 15.7267C22.262 15.7267 22.2542 15.7111 22.2542 15.7033C22.1474 15.4011 21.9884 15.2395 21.7696 15.2187V15.0598H22.968V15.2187C22.83 15.2239 22.7336 15.2421 22.6815 15.2656C22.6267 15.2942 22.6007 15.3307 22.6007 15.3828C22.6007 15.3985 22.6033 15.4271 22.6163 15.4662C22.6267 15.5053 22.6398 15.5496 22.658 15.6017L23.3745 17.6703L24.0441 15.6668C24.0571 15.6251 24.0649 15.5886 24.0701 15.5574C24.0779 15.5235 24.0805 15.4922 24.0805 15.4636C24.0805 15.3828 24.0519 15.3229 23.9998 15.2864C23.9451 15.25 23.8565 15.2239 23.7288 15.2187V15.0598H24.7006V15.2187C24.5912 15.2291 24.5078 15.2604 24.4505 15.3125C24.388 15.3646 24.3385 15.4584 24.2916 15.5965L23.3172 18.4337H23.1947H23.1869ZM25.1253 18.3217V18.1627H25.2008C25.3441 18.1627 25.4379 18.1393 25.4822 18.0898C25.5291 18.0403 25.55 17.9283 25.55 17.7511V15.6277C25.55 15.4454 25.5291 15.3359 25.4848 15.2916C25.4405 15.25 25.3415 15.2265 25.1852 15.2265H25.1253V15.0624H27.3867L27.7046 15.8309L27.5795 15.8778C27.3815 15.6199 27.2018 15.4427 27.0376 15.349C26.8761 15.2526 26.6781 15.2031 26.4462 15.2031C26.2612 15.2031 26.1388 15.2265 26.0788 15.2786C26.0189 15.3255 25.9877 15.4271 25.9877 15.5782V16.5396H26.2143C26.4201 16.5396 26.5739 16.4979 26.6755 16.4145C26.7745 16.3338 26.8396 16.1957 26.8683 16.0029H27.022V17.2639H26.8683C26.8422 17.0659 26.7797 16.9226 26.6807 16.8366C26.5791 16.748 26.4254 16.709 26.2169 16.709H25.9903V17.8266C25.9903 17.9517 26.0189 18.0351 26.071 18.082C26.1257 18.1263 26.2247 18.1497 26.3628 18.1497C26.6416 18.1497 26.8865 18.0924 27.1028 17.9752C27.319 17.8579 27.5118 17.6755 27.6864 17.4254L27.8166 17.4697L27.5066 18.3217H25.1227H25.1253ZM30.4272 18.3217L29.5622 16.7376H29.2287V17.7824C29.2287 17.9387 29.2522 18.0429 29.2965 18.0924C29.3434 18.1393 29.4372 18.1653 29.5778 18.1653H29.656V18.3243H28.3637V18.1653H28.4393C28.5826 18.1653 28.6764 18.1419 28.7207 18.0924C28.7676 18.0429 28.7884 17.9257 28.7884 17.7433V15.6121C28.7884 15.448 28.765 15.3437 28.7207 15.2995C28.6764 15.2552 28.58 15.2317 28.4289 15.2317H28.3611V15.0676H29.6482C30.0494 15.0676 30.3542 15.1405 30.5627 15.289C30.7685 15.4349 30.8753 15.6512 30.8753 15.9352C30.8753 16.1488 30.8024 16.3208 30.6591 16.4484C30.5184 16.5761 30.2969 16.6647 29.9973 16.7168L30.5887 17.7667C30.6851 17.9361 30.7711 18.0429 30.8467 18.0924C30.9248 18.1445 31.0264 18.1706 31.1567 18.1706H31.1906V18.3295H30.4246L30.4272 18.3217ZM29.2287 16.5683H29.5883C29.8696 16.5683 30.0755 16.5162 30.2031 16.4119C30.3282 16.3077 30.3933 16.1436 30.3933 15.9143C30.3933 15.685 30.3334 15.4975 30.2162 15.3828C30.0989 15.2682 29.9139 15.2135 29.6586 15.2135C29.4814 15.2135 29.3642 15.2369 29.3095 15.2838C29.2548 15.3307 29.2287 15.4349 29.2287 15.5965V16.5683ZM31.8601 18.3868L31.5371 17.5166L31.6882 17.4593C31.868 17.7016 32.0581 17.8918 32.2562 18.0221C32.4542 18.1549 32.647 18.2201 32.8345 18.2201C33.0117 18.2201 33.1576 18.1601 33.2775 18.0403C33.3973 17.923 33.4572 17.7693 33.4572 17.5922C33.4572 17.415 33.3999 17.2639 33.2931 17.1597C33.1837 17.0529 32.9596 16.9486 32.6183 16.847C32.5975 16.8418 32.5662 16.8314 32.5245 16.821C32.2535 16.748 32.0555 16.649 31.9331 16.5292C31.8471 16.4354 31.7794 16.339 31.7325 16.227C31.6882 16.1149 31.6647 15.9977 31.6647 15.8752C31.6647 15.6277 31.7455 15.4167 31.9096 15.2526C32.0738 15.0884 32.2796 15.0024 32.5271 15.0024C32.6261 15.0024 32.7303 15.0207 32.8502 15.0572C32.9648 15.0936 33.0378 15.1119 33.0612 15.1119C33.1003 15.1119 33.1472 15.1041 33.1993 15.0858C33.2488 15.0702 33.3061 15.0467 33.3712 15.0155L33.6735 15.8414L33.5458 15.9117C33.3686 15.6538 33.1967 15.4636 33.0273 15.3385C32.858 15.2135 32.6965 15.1483 32.5297 15.1483C32.363 15.1483 32.2379 15.2057 32.1337 15.3125C32.0295 15.4219 31.9774 15.56 31.9774 15.7267C31.9774 15.8205 31.993 15.9013 32.0269 15.9742C32.0581 16.0472 32.1129 16.1149 32.1858 16.1775C32.2848 16.2608 32.4854 16.3416 32.7903 16.4224C32.8632 16.4432 32.9179 16.4562 32.957 16.4667C33.2306 16.5448 33.4338 16.6621 33.5693 16.8236C33.7073 16.9851 33.7725 17.1909 33.7725 17.4358C33.7725 17.7042 33.6865 17.9335 33.5119 18.1184C33.34 18.306 33.1289 18.3998 32.8788 18.3998C32.7329 18.3998 32.5844 18.3738 32.4333 18.3217C32.2822 18.2643 32.2014 18.2409 32.1936 18.2409C32.1598 18.2409 32.1155 18.2513 32.0634 18.2774C32.0112 18.2982 31.9435 18.3373 31.8523 18.392L31.8601 18.3868ZM35.591 15.0624V15.2265H35.505C35.3617 15.2265 35.2679 15.25 35.2237 15.2995C35.1794 15.349 35.1559 15.4584 35.1559 15.6329V17.7433C35.1559 17.923 35.182 18.0377 35.2263 18.0872C35.2732 18.1393 35.3696 18.1653 35.5102 18.1653H35.5884V18.3243H34.2961V18.1653H34.3535C34.502 18.1653 34.5984 18.1419 34.6479 18.095C34.6974 18.0481 34.7208 17.9361 34.7208 17.7615V15.6329C34.7208 15.448 34.6974 15.3359 34.6531 15.2916C34.6088 15.25 34.5098 15.2265 34.3587 15.2265H34.2961V15.0624H35.5884H35.591ZM38.6367 15.0624L38.9024 15.8492L38.7617 15.8987C38.5377 15.6069 38.3605 15.4219 38.2354 15.3359C38.113 15.25 37.9801 15.2083 37.8264 15.2083C37.7613 15.2083 37.717 15.2213 37.6883 15.2421C37.6623 15.2656 37.6492 15.3099 37.6492 15.375V17.7693C37.6492 17.9335 37.6727 18.0377 37.7196 18.0872C37.7639 18.1367 37.8603 18.1627 38.001 18.1627H38.0817V18.3217H36.7817V18.1627H36.865C37.0057 18.1627 37.0995 18.1393 37.1438 18.0924C37.1881 18.0429 37.2141 17.9387 37.2141 17.7745V15.3776C37.2141 15.3125 37.2011 15.2682 37.1725 15.2447C37.149 15.2213 37.1021 15.2109 37.0318 15.2109C36.8833 15.2109 36.7504 15.2526 36.6279 15.3385C36.5029 15.4245 36.3283 15.6095 36.1017 15.9039L35.961 15.8518L36.2267 15.065H38.6393L38.6367 15.0624ZM40.3119 16.9929L39.5303 15.4375C39.486 15.3542 39.4391 15.2968 39.3922 15.2682C39.3427 15.2421 39.2698 15.2265 39.1682 15.2213L39.1734 15.0624H40.2911V15.2213H40.252C40.1478 15.2213 40.0722 15.2317 40.0253 15.25C39.9784 15.2682 39.9524 15.2968 39.9524 15.3333C39.9524 15.3516 39.955 15.3724 39.9654 15.3932C39.9732 15.4167 39.9915 15.4532 40.0201 15.5053L40.6558 16.7246L41.2134 15.6069C41.2316 15.5704 41.2446 15.5365 41.2525 15.5053C41.2603 15.474 41.2681 15.4427 41.2681 15.4167C41.2681 15.349 41.2394 15.2995 41.1821 15.2682C41.1248 15.2343 41.0414 15.2161 40.9242 15.2161L40.9294 15.0572H41.8673V15.2161C41.7032 15.2369 41.5729 15.3411 41.4739 15.5313C41.4661 15.5496 41.4583 15.5652 41.4531 15.573L40.7522 16.9278V17.7798C40.7522 17.9361 40.7757 18.0351 40.82 18.0872C40.8669 18.1367 40.958 18.1627 41.1013 18.1627H41.1821V18.3217H39.8872V18.1627H39.9706C40.1061 18.1627 40.1999 18.1393 40.2442 18.0924C40.2885 18.0455 40.3093 17.9387 40.3093 17.7771V16.9903L40.3119 16.9929Z" fill="white"/>
<path id="Vector_9" fill-rule="evenodd" clip-rule="evenodd" d="M24.3279 49.9685C26.9254 55.2756 37.9174 53.2434 36.6564 45.9067C37.537 46.209 38.019 47.0505 38.1389 48.288C38.2769 49.7132 37.8731 51.0653 37.7012 52.4696C37.4901 54.2283 37.4615 55.8905 37.6256 57.7689C36.7242 58.2014 35.8175 58.6235 34.903 59.0351C34.7493 58.4541 34.5982 57.8731 34.4601 57.3104C34.2491 57.3912 34.0042 57.4537 33.7801 57.4876C33.9312 58.1024 34.0901 58.7147 34.2465 59.3295L33.4935 59.663C33.259 59.0951 33.0219 58.5271 32.7953 57.9722C32.5009 57.9565 32.1049 57.9409 31.8339 57.8966C32.1413 58.5792 32.454 59.2826 32.7666 59.9809L31.9095 60.3508C31.4926 59.5562 31.0705 58.7433 30.6589 57.9617C30.3567 57.9487 30.0675 57.9148 29.7861 57.8731C30.2889 58.7668 30.81 59.6969 31.318 60.6062L30.3983 60.9996L26.3522 55.2652C28.7023 57.3417 33.6368 57.399 35.8826 55.0151C36.534 54.4758 36.0911 53.319 34.9786 54.2413C34.0511 55.002 32.8344 55.4866 31.5864 55.6899C29.6662 56.0051 27.6653 55.6482 26.063 54.5044C24.763 53.5743 23.8224 52.0997 24.3253 49.9685H24.3279ZM27.1495 53.7775C27.2433 53.7984 27.3058 53.8817 27.2876 53.9651C27.2719 54.0485 27.1833 54.1006 27.0895 54.0824C26.9958 54.0641 26.9332 53.9781 26.9515 53.8948C26.9671 53.8114 27.0583 53.7593 27.1521 53.7775H27.1495ZM27.9988 53.9286C28.189 53.9677 28.3141 54.1371 28.2828 54.3064C28.2463 54.4758 28.0639 54.5826 27.8738 54.5435C27.6862 54.5044 27.5559 54.3351 27.5924 54.1631C27.6262 53.9938 27.8086 53.887 28.0014 53.9286H27.9988ZM28.7205 54.1397C28.6684 54.2908 28.697 54.4966 28.856 54.6321C29.041 54.7884 29.2754 54.765 29.4995 54.7728C31.8287 54.8353 33.7462 54.124 35.2573 52.6364C35.471 52.4045 35.4319 52.0919 35.2078 52.1205C33.4935 53.3555 31.5577 54.0407 29.5125 53.8922C29.278 53.8765 28.8351 53.8088 28.7205 54.1397Z" fill="#002E5E"/>
<path id="Vector_10" d="M58.0469 56.7661H127.816V57.6676H58.0469V56.7661Z" fill="white"/>
<path id="Vector_11" d="M129.234 61.8283C129.234 62.5943 129.404 63.3264 129.735 64.0064C130.076 64.689 130.563 65.2361 131.207 65.6243C131.85 66.0255 132.582 66.2209 133.408 66.2209C134.164 66.2209 134.87 66.0385 135.513 65.6842C136.17 65.3325 136.681 64.7958 137.035 64.1028C137.389 63.4097 137.569 62.6177 137.569 61.7293C137.569 60.8409 137.4 60.0749 137.058 59.3923C136.717 58.6992 136.23 58.1625 135.586 57.7848C134.94 57.3966 134.211 57.2012 133.408 57.2012C132.178 57.2012 131.181 57.6154 130.402 58.4309C129.623 59.2594 129.234 60.3901 129.234 61.8257V61.8283ZM130.428 61.8517C130.428 60.5386 130.719 59.6007 131.316 59.0406C131.9 58.4804 132.606 58.2016 133.421 58.2016C133.992 58.2016 134.505 58.3475 134.966 58.6393C135.427 58.9311 135.782 59.3454 136.024 59.8691C136.256 60.3927 136.376 61.0128 136.376 61.7319C136.376 62.8522 136.097 63.7146 135.537 64.3242C134.977 64.9339 134.26 65.2361 133.395 65.2361C132.53 65.2361 131.837 64.9313 131.277 64.3346C130.704 63.725 130.425 62.8991 130.425 61.8517H130.428ZM140.2 66.075H141.308V59.2229L145.883 66.075H147.063V57.3627H145.956V64.2018L141.381 57.3627H140.2V66.075ZM150.119 66.075H155.572V65.0537H151.276V57.3627H150.119V66.075ZM158.297 66.075H159.454V57.3627H158.297V66.075ZM162.63 66.075H163.737V59.2229L168.312 66.075H169.492V57.3627H168.385V64.2018L163.81 57.3627H162.63V66.075ZM172.621 66.075H179.119V65.0537H173.776V62.0836H178.596V61.0623H173.776V58.397H178.924V57.3627H172.619V66.075H172.621Z" fill="white"/>
</g>
</g>
</g>
</g>
<defs>
<clipPath id="clip0_0_1">
<rect width="1920" height="15431" fill="white" transform="translate(-87 -42)"/>
</clipPath>
</defs>
</svg>
